<svg xmlns="http://www.w3.org/2000/svg" width="863.1595458984375" height="988.3526611328125" viewBox="-436.19793701171875 -400.3976745605469 863.1595458984375 988.3526611328125"><title>Neo4j Graph Visualization</title><desc>Created using Neo4j (http://www.neo4j.com/)</desc><g class="layer relationships"><g class="relationship" transform="translate(-206.11240470090848 -354.63905049736286) rotate(408.93416003453035)"><path class="b-outline" fill="#000000" stroke="none" d="M 30 1 L 119.76737090599343 1 L 119.76737090599343 -1 L 30 -1 Z M 194.52908965599343 1 L 284.29646056198686 1 L 284.29646056198686 4 L 292.29646056198686 0 L 284.29646056198686 -4 L 284.29646056198686 -1 L 194.52908965599343 -1 Z"/><text text-anchor="middle" pointer-events="none" font-size="8px" fill="#000000" x="157.14823028099343" y="3" font-family="Helvetica Neue, Helvetica, Arial, sans-serif">EXECUTABLE_REF</text></g><g class="relationship" transform="translate(-206.11240470090848 -354.63905049736286) rotate(517.5255279790106)"><path class="b-outline" fill="#000000" stroke="none" d="M 30 1 L 60.80232504895558 1 L 60.80232504895558 -1 L 30 -1 Z M 143.3999812989556 1 L 174.20230634791116 1 L 174.20230634791116 4 L 182.20230634791116 0 L 174.20230634791116 -4 L 174.20230634791116 -1 L 143.3999812989556 -1 Z"/><text text-anchor="middle" pointer-events="none" font-size="8px" fill="#000000" x="102.10115317395558" y="3" transform="rotate(180 102.10115317395558 0)" font-family="Helvetica Neue, Helvetica, Arial, sans-serif">STATEMENT_ORDER</text></g><g class="relationship" transform="translate(-402.1979340767186 -273.5201008691715) rotate(437.2565219938836)"><path class="b-outline" fill="#000000" stroke="none" d="M 30 1 L 50.83835174504685 1 L 50.83835174504685 -1 L 30 -1 Z M 125.60007049504685 1 L 146.4384222400937 1 L 146.4384222400937 4 L 154.4384222400937 0 L 146.4384222400937 -4 L 146.4384222400937 -1 L 125.60007049504685 -1 Z"/><text text-anchor="middle" pointer-events="none" font-size="8px" fill="#000000" x="88.21921112004685" y="3" font-family="Helvetica Neue, Helvetica, Arial, sans-serif">EXECUTABLE_REF</text></g><g class="relationship" transform="translate(-101.46901239144171 204.46479895286177) rotate(397.13354415172813)"><path class="b-outline" fill="#000000" stroke="none" d="M 30 1 L 55.15957108635763 1 L 55.15957108635763 -1 L 30 -1 Z M 129.92128983635763 1 L 155.08086092271526 1 L 155.08086092271526 4 L 163.08086092271526 0 L 155.08086092271526 -4 L 155.08086092271526 -1 L 129.92128983635763 -1 Z"/><text text-anchor="middle" pointer-events="none" font-size="8px" fill="#000000" x="92.54043046135763" y="3" font-family="Helvetica Neue, Helvetica, Arial, sans-serif">EXECUTABLE_REF</text></g><g class="relationship" transform="translate(-101.46901239144171 204.46479895286177) rotate(359.4128194892621)"><path class="b-outline" fill="#000000" stroke="none" d="M 30 1 L 60.237287902215 1 L 60.237287902215 -1 L 30 -1 Z M 94.088850402215 1 L 124.32613830443 1 L 124.32613830443 4 L 132.32613830443 0 L 124.32613830443 -4 L 124.32613830443 -1 L 94.088850402215 -1 Z"/><text text-anchor="middle" pointer-events="none" font-size="8px" fill="#000000" x="77.163069152215" y="3" font-family="Helvetica Neue, Helvetica, Arial, sans-serif">TARGET</text></g><g class="relationship" transform="translate(49.43313619884953 -332.40182476754376) rotate(461.2272284845353)"><path class="b-outline" fill="#000000" stroke="none" d="M 30 1 L 71.15265536390362 1 L 71.15265536390362 -1 L 30 -1 Z M 145.91437411390362 1 L 187.06702947780724 1 L 187.06702947780724 4 L 195.06702947780724 0 L 187.06702947780724 -4 L 187.06702947780724 -1 L 145.91437411390362 -1 Z"/><text text-anchor="middle" pointer-events="none" font-size="8px" fill="#000000" x="108.53351473890362" y="3" transform="rotate(180 108.53351473890362 0)" font-family="Helvetica Neue, Helvetica, Arial, sans-serif">EXECUTABLE_REF</text></g><g class="relationship" transform="translate(49.43313619884953 -332.40182476754376) rotate(349.7191691826167)"><path class="b-outline" fill="#000000" stroke="none" d="M 30 1 L 49.942068143439556 1 L 49.942068143439556 -1 L 30 -1 Z M 132.53972439343954 1 L 152.4817925368791 1 L 152.4817925368791 4 L 160.4817925368791 0 L 152.4817925368791 -4 L 152.4817925368791 -1 L 132.53972439343954 -1 Z"/><text text-anchor="middle" pointer-events="none" font-size="8px" fill="#000000" x="91.24089626843956" y="3" font-family="Helvetica Neue, Helvetica, Arial, sans-serif">STATEMENT_ORDER</text></g><g class="relationship" transform="translate(236.85670620179485 -366.39768768369447) rotate(401.1603483712656)"><path class="b-outline" fill="#000000" stroke="none" d="M 30 1 L 55.579212665303075 1 L 55.579212665303075 -1 L 30 -1 Z M 130.3409314153031 1 L 155.92014408060615 1 L 155.92014408060615 4 L 163.92014408060615 0 L 155.92014408060615 -4 L 155.92014408060615 -1 L 130.3409314153031 -1 Z"/><text text-anchor="middle" pointer-events="none" font-size="8px" fill="#000000" x="92.96007204030307" y="3" font-family="Helvetica Neue, Helvetica, Arial, sans-serif">EXECUTABLE_REF</text></g><g class="relationship" transform="translate(60.848601732038944 202.80127194984544) rotate(365.8900906100446)"><path class="b-outline" fill="#000000" stroke="none" d="M 30 1 L 86.00599979558243 1 L 86.00599979558243 -1 L 30 -1 Z M 108.90053104558243 1 L 164.90653084116485 1 L 164.90653084116485 4 L 172.90653084116485 0 L 164.90653084116485 -4 L 164.90653084116485 -1 L 108.90053104558243 -1 Z"/><text text-anchor="middle" pointer-events="none" font-size="8px" fill="#000000" x="97.45326542058243" y="3" font-family="Helvetica Neue, Helvetica, Arial, sans-serif">TYPE</text></g><g class="relationship" transform="translate(280.14296178182605 -200.51341705577835) rotate(195.3172280741985)"><path class="b-outline" fill="#000000" stroke="none" d="M 30 1 L 62.15383433203645 1 L 62.15383433203645 -1 L 30 -1 Z M 86.82570933203645 1 L 118.9795436640729 1 L 118.9795436640729 4 L 126.9795436640729 0 L 118.9795436640729 -4 L 118.9795436640729 -1 L 86.82570933203645 -1 Z"/><text text-anchor="middle" pointer-events="none" font-size="8px" fill="#000000" x="74.48977183203645" y="3" transform="rotate(180 74.48977183203645 0)" font-family="Helvetica Neue, Helvetica, Arial, sans-serif">BODY</text></g><g class="relationship" transform="translate(280.14296178182605 -200.51341705577835) rotate(487.6299156301988)"><path class="b-outline" fill="#000000" stroke="none" d="M 30 1 L 47.854450049434305 1 L 47.854450049434305 -1 L 30 -1 Z M 101.1122625494343 1 L 118.96671259886861 1 L 118.96671259886861 4 L 126.96671259886861 0 L 118.96671259886861 -4 L 118.96671259886861 -1 L 101.1122625494343 -1 Z"/><text text-anchor="middle" pointer-events="none" font-size="8px" fill="#000000" x="74.4833562994343" y="3" transform="rotate(180 74.4833562994343 0)" font-family="Helvetica Neue, Helvetica, Arial, sans-serif">ANNOTATION</text></g><g class="relationship" transform="translate(95.18451267269069 396.5495506591791) rotate(433.4112892227978)"><path class="b-outline" fill="#000000" stroke="none" d="M 30 1 L 65.78473835689364 1 L 65.78473835689364 -1 L 30 -1 Z M 90.45661335689364 1 L 126.24135171378728 1 L 126.24135171378728 4 L 134.24135171378728 0 L 126.24135171378728 -4 L 126.24135171378728 -1 L 90.45661335689364 -1 Z"/><text text-anchor="middle" pointer-events="none" font-size="8px" fill="#000000" x="78.12067585689364" y="3" font-family="Helvetica Neue, Helvetica, Arial, sans-serif">BODY</text></g><g class="relationship" transform="translate(95.18451267269069 396.5495506591791) rotate(504.84940873990337)"><path class="b-outline" fill="#000000" stroke="none" d="M 30 1 L 49.35593269728699 1 L 49.35593269728699 -1 L 30 -1 Z M 102.61374519728699 1 L 121.96967789457398 1 L 121.96967789457398 4 L 129.96967789457398 0 L 121.96967789457398 -4 L 121.96967789457398 -1 L 102.61374519728699 -1 Z"/><text text-anchor="middle" pointer-events="none" font-size="8px" fill="#000000" x="75.98483894728699" y="3" transform="rotate(180 75.98483894728699 0)" font-family="Helvetica Neue, Helvetica, Arial, sans-serif">ANNOTATION</text></g><g class="relationship" transform="translate(382.8534767142119 -238.765539381679) rotate(446.08901935939934)"><path class="b-outline" fill="#000000" stroke="none" d="M 30 1 L 57.76362406308847 1 L 57.76362406308847 -1 L 30 -1 Z M 82.43549906308847 1 L 110.19912312617694 1 L 110.19912312617694 4 L 118.19912312617694 0 L 110.19912312617694 -4 L 110.19912312617694 -1 L 82.43549906308847 -1 Z"/><text text-anchor="middle" pointer-events="none" font-size="8px" fill="#000000" x="70.09956156308847" y="3" font-family="Helvetica Neue, Helvetica, Arial, sans-serif">BODY</text></g><g class="relationship" transform="translate(-175.15014185198913 -196.74008567582226) rotate(188.1295931024937)"><path class="b-outline" fill="#000000" stroke="none" d="M 30 1 L 40.51623110671734 1 L 40.51623110671734 -1 L 30 -1 Z M 65.18810610671734 1 L 75.70433721343468 1 L 75.70433721343468 4 L 83.70433721343468 0 L 75.70433721343468 -4 L 75.70433721343468 -1 L 65.18810610671734 -1 Z"/><text text-anchor="middle" pointer-events="none" font-size="8px" fill="#000000" x="52.85216860671734" y="3" transform="rotate(180 52.85216860671734 0)" font-family="Helvetica Neue, Helvetica, Arial, sans-serif">BODY</text></g><g class="relationship" transform="translate(-175.15014185198913 -196.74008567582226) rotate(420.3385328035126)"><path class="b-outline" fill="#000000" stroke="none" d="M 30 1 L 45.891030044477745 1 L 45.891030044477745 -1 L 30 -1 Z M 99.14884254447774 1 L 115.03987258895549 1 L 115.03987258895549 4 L 123.03987258895549 0 L 115.03987258895549 -4 L 115.03987258895549 -1 L 99.14884254447774 -1 Z"/><text text-anchor="middle" pointer-events="none" font-size="8px" fill="#000000" x="72.51993629447774" y="3" font-family="Helvetica Neue, Helvetica, Arial, sans-serif">ANNOTATION</text></g><g class="relationship" transform="translate(5.6124718205169515 -111.64196172309067) rotate(451.3347990876453)"><path class="b-outline" fill="#000000" stroke="none" d="M 30 1 L 87.40431515482855 1 L 87.40431515482855 -1 L 30 -1 Z M 112.07619015482855 1 L 169.4805053096571 1 L 169.4805053096571 4 L 177.4805053096571 0 L 169.4805053096571 -4 L 169.4805053096571 -1 L 112.07619015482855 -1 Z"/><text text-anchor="middle" pointer-events="none" font-size="8px" fill="#000000" x="99.74025265482855" y="3" transform="rotate(180 99.74025265482855 0)" font-family="Helvetica Neue, Helvetica, Arial, sans-serif">BODY</text></g><g class="relationship" transform="translate(5.6124718205169515 -111.64196172309067) rotate(249.8721453805273)"><path class="b-outline" fill="#000000" stroke="none" d="M 30 1 L 48.58145671314624 1 L 48.58145671314624 -1 L 30 -1 Z M 101.83926921314624 1 L 120.42072592629248 1 L 120.42072592629248 4 L 128.42072592629248 0 L 120.42072592629248 -4 L 120.42072592629248 -1 L 101.83926921314624 -1 Z"/><text text-anchor="middle" pointer-events="none" font-size="8px" fill="#000000" x="75.21036296314624" y="3" transform="rotate(180 75.21036296314624 0)" font-family="Helvetica Neue, Helvetica, Arial, sans-serif">ANNOTATION</text></g><g class="relationship" transform="translate(-361.5133246274845 -93.62486982515968) rotate(424.2023858459314)"><path class="b-outline" fill="#000000" stroke="none" d="M 30 1 L 58.65563624985907 1 L 58.65563624985907 -1 L 30 -1 Z M 83.32751124985907 1 L 111.98314749971814 1 L 111.98314749971814 4 L 119.98314749971814 0 L 111.98314749971814 -4 L 111.98314749971814 -1 L 83.32751124985907 -1 Z"/><text text-anchor="middle" pointer-events="none" font-size="8px" fill="#000000" x="70.99157374985907" y="3" font-family="Helvetica Neue, Helvetica, Arial, sans-serif">BODY</text></g><g class="relationship" transform="translate(128.73964048213693 -241.98161485124183) rotate(228.74637951758996)"><path class="b-outline" fill="#000000" stroke="none" d="M 30 1 L 31.50705633259942 1 L 31.50705633259942 -1 L 30 -1 Z M 80.76486883259942 1 L 82.27192516519884 1 L 82.27192516519884 4 L 90.27192516519884 0 L 82.27192516519884 -4 L 82.27192516519884 -1 L 80.76486883259942 -1 Z"/><text text-anchor="middle" pointer-events="none" font-size="8px" fill="#000000" x="56.13596258259942" y="3" transform="rotate(180 56.13596258259942 0)" font-family="Helvetica Neue, Helvetica, Arial, sans-serif">STATEMENT</text></g><g class="relationship" transform="translate(128.73964048213693 -241.98161485124183) rotate(310.9905094076545)"><path class="b-outline" fill="#000000" stroke="none" d="M 30 1 L 53.78568450746083 1 L 53.78568450746083 -1 L 30 -1 Z M 103.04349700746083 1 L 126.82918151492166 1 L 126.82918151492166 4 L 134.82918151492166 0 L 126.82918151492166 -4 L 126.82918151492166 -1 L 103.04349700746083 -1 Z"/><text text-anchor="middle" pointer-events="none" font-size="8px" fill="#000000" x="78.41459075746083" y="3" font-family="Helvetica Neue, Helvetica, Arial, sans-serif">STATEMENT</text></g><g class="relationship" transform="translate(-287.71183582197176 -212.8193067936017) rotate(207.9326385854165)"><path class="b-outline" fill="#000000" stroke="none" d="M 30 1 L 36.162399291330686 1 L 36.162399291330686 -1 L 30 -1 Z M 85.42021179133069 1 L 91.58261108266137 1 L 91.58261108266137 4 L 99.58261108266137 0 L 91.58261108266137 -4 L 91.58261108266137 -1 L 85.42021179133069 -1 Z"/><text text-anchor="middle" pointer-events="none" font-size="8px" fill="#000000" x="60.791305541330686" y="3" transform="rotate(180 60.791305541330686 0)" font-family="Helvetica Neue, Helvetica, Arial, sans-serif">STATEMENT</text></g><g class="relationship" transform="translate(-287.71183582197176 -212.8193067936017) rotate(299.9150149193627)"><path class="b-outline" fill="#000000" stroke="none" d="M 30 1 L 53.180791927358 1 L 53.180791927358 -1 L 30 -1 Z M 102.438604427358 1 L 125.619396354716 1 L 125.619396354716 4 L 133.619396354716 0 L 125.619396354716 -4 L 125.619396354716 -1 L 102.438604427358 -1 Z"/><text text-anchor="middle" pointer-events="none" font-size="8px" fill="#000000" x="77.809698177358" y="3" font-family="Helvetica Neue, Helvetica, Arial, sans-serif">STATEMENT</text></g><g class="relationship" transform="translate(0.7793106168909958 95.78224283445468) rotate(493.25279198832254)"><path class="b-outline" fill="#000000" stroke="none" d="M 30 1 L 45.98110910056646 1 L 45.98110910056646 -1 L 30 -1 Z M 95.23892160056646 1 L 111.22003070113291 1 L 111.22003070113291 4 L 119.22003070113291 0 L 111.22003070113291 -4 L 111.22003070113291 -1 L 95.23892160056646 -1 Z"/><text text-anchor="middle" pointer-events="none" font-size="8px" fill="#000000" x="70.61001535056646" y="3" transform="rotate(180 70.61001535056646 0)" font-family="Helvetica Neue, Helvetica, Arial, sans-serif">STATEMENT</text></g><g class="relationship" transform="translate(-201.4341901097864 -37.14289467973292) rotate(375.68786727192617)"><path class="b-outline" fill="#000000" stroke="none" d="M 30 1 L 127.58611281636496 1 L 127.58611281636496 -1 L 30 -1 Z M 182.49236281636496 1 L 280.0784756327299 1 L 280.0784756327299 4 L 288.0784756327299 0 L 280.0784756327299 -4 L 280.0784756327299 -1 L 182.49236281636496 -1 Z"/><text text-anchor="middle" pointer-events="none" font-size="8px" fill="#000000" x="155.03923781636496" y="3" font-family="Helvetica Neue, Helvetica, Arial, sans-serif">SUPER_TYPE</text></g><g class="relationship" transform="translate(-201.4341901097864 -37.14289467973292) rotate(199.43476946136695)"><path class="b-outline" fill="#000000" stroke="none" d="M 30 1 L 49.64719177155706 1 L 49.64719177155706 -1 L 30 -1 Z M 112.10422302155706 1 L 131.75141479311412 1 L 131.75141479311412 4 L 139.75141479311412 0 L 131.75141479311412 -4 L 131.75141479311412 -1 L 112.10422302155706 -1 Z"/><text text-anchor="middle" pointer-events="none" font-size="8px" fill="#000000" x="80.87570739655706" y="3" transform="rotate(180 80.87570739655706 0)" font-family="Helvetica Neue, Helvetica, Arial, sans-serif">TYPE_MEMBER</text></g><g class="relationship" transform="translate(-201.4341901097864 -37.14289467973292) rotate(279.352088702022)"><path class="b-outline" fill="#000000" stroke="none" d="M 30 1 L 45.64501924064754 1 L 45.64501924064754 -1 L 30 -1 Z M 108.10205049064754 1 L 123.74706973129508 1 L 123.74706973129508 4 L 131.74706973129508 0 L 123.74706973129508 -4 L 123.74706973129508 -1 L 108.10205049064754 -1 Z"/><text text-anchor="middle" pointer-events="none" font-size="8px" fill="#000000" x="76.87353486564754" y="3" font-family="Helvetica Neue, Helvetica, Arial, sans-serif">TYPE_MEMBER</text></g><g class="relationship" transform="translate(104.7955525367411 48.864438609252986) rotate(407.9033764797713)"><path class="b-outline" fill="#000000" stroke="none" d="M 30 1 L 90.31256464854273 1 L 90.31256464854273 -1 L 30 -1 Z M 137.20709589854272 1 L 197.51966054708546 1 L 197.51966054708546 4 L 205.51966054708546 0 L 197.51966054708546 -4 L 197.51966054708546 -1 L 137.20709589854272 -1 Z"/><text text-anchor="middle" pointer-events="none" font-size="8px" fill="#000000" x="113.75983027354273" y="3" font-family="Helvetica Neue, Helvetica, Arial, sans-serif">INTERFACE</text></g><g class="relationship" transform="translate(104.7955525367411 48.864438609252986) rotate(465.9333507013049)"><path class="b-outline" fill="#000000" stroke="none" d="M 30 1 L 44.815039930647714 1 L 44.815039930647714 -1 L 30 -1 Z M 107.27207118064771 1 L 122.08711111129543 1 L 122.08711111129543 4 L 130.08711111129543 0 L 122.08711111129543 -4 L 122.08711111129543 -1 L 107.27207118064771 -1 Z"/><text text-anchor="middle" pointer-events="none" font-size="8px" fill="#000000" x="76.04355555564771" y="3" transform="rotate(180 76.04355555564771 0)" font-family="Helvetica Neue, Helvetica, Arial, sans-serif">TYPE_MEMBER</text></g><g class="relationship" transform="translate(104.7955525367411 48.864438609252986) rotate(238.28648560037038)"><path class="b-outline" fill="#000000" stroke="none" d="M 30 1 L 59.11074985868872 1 L 59.11074985868872 -1 L 30 -1 Z M 121.56778110868872 1 L 150.67853096737744 1 L 150.67853096737744 4 L 158.67853096737744 0 L 150.67853096737744 -4 L 150.67853096737744 -1 L 121.56778110868872 -1 Z"/><text text-anchor="middle" pointer-events="none" font-size="8px" fill="#000000" x="90.33926548368872" y="3" transform="rotate(180 90.33926548368872 0)" font-family="Helvetica Neue, Helvetica, Arial, sans-serif">TYPE_MEMBER</text></g><g class="relationship" transform="translate(229.14649493880216 375.3625279629459) rotate(282.46317916912983)"><path class="b-outline" fill="#000000" stroke="none" d="M 30 1 L 50.253196787304276 1 L 50.253196787304276 -1 L 30 -1 Z M 97.14772803730428 1 L 117.40092482460855 1 L 117.40092482460855 4 L 125.40092482460855 0 L 117.40092482460855 -4 L 117.40092482460855 -1 L 97.14772803730428 -1 Z"/><text text-anchor="middle" pointer-events="none" font-size="8px" fill="#000000" x="73.70046241230428" y="3" font-family="Helvetica Neue, Helvetica, Arial, sans-serif">INTERFACE</text></g><g class="relationship" transform="translate(229.14649493880216 375.3625279629459) rotate(531.0127139738322)"><path class="b-outline" fill="#000000" stroke="none" d="M 30 1 L 32.58502030883231 1 L 32.58502030883231 -1 L 30 -1 Z M 95.04205155883231 1 L 97.62707186766463 1 L 97.62707186766463 4 L 105.62707186766463 0 L 97.62707186766463 -4 L 97.62707186766463 -1 L 95.04205155883231 -1 Z"/><text text-anchor="middle" pointer-events="none" font-size="8px" fill="#000000" x="63.81353593383231" y="3" transform="rotate(180 63.81353593383231 0)" font-family="Helvetica Neue, Helvetica, Arial, sans-serif">TYPE_MEMBER</text></g><g class="relationship" transform="translate(291.5343098983938 -43.09858623637958) rotate(513.7811892190541)"><path class="b-outline" fill="#000000" stroke="none" d="M 30 1 L 72.62444395668327 1 L 72.62444395668327 -1 L 30 -1 Z M 127.53069395668327 1 L 170.15513791336653 1 L 170.15513791336653 4 L 178.15513791336653 0 L 170.15513791336653 -4 L 170.15513791336653 -1 L 127.53069395668327 -1 Z"/><text text-anchor="middle" pointer-events="none" font-size="8px" fill="#000000" x="100.07756895668327" y="3" transform="rotate(180 100.07756895668327 0)" font-family="Helvetica Neue, Helvetica, Arial, sans-serif">SUPER_TYPE</text></g><g class="relationship" transform="translate(291.5343098983938 -43.09858623637958) rotate(295.01879835102864)"><path class="b-outline" fill="#000000" stroke="none" d="M 30 1 L 72.73530560820294 1 L 72.73530560820294 -1 L 30 -1 Z M 135.19233685820294 1 L 177.92764246640587 1 L 177.92764246640587 4 L 185.92764246640587 0 L 177.92764246640587 -4 L 177.92764246640587 -1 L 135.19233685820294 -1 Z"/><text text-anchor="middle" pointer-events="none" font-size="8px" fill="#000000" x="103.96382123320294" y="3" font-family="Helvetica Neue, Helvetica, Arial, sans-serif">TYPE_MEMBER</text></g><g class="relationship" transform="translate(291.5343098983938 -43.09858623637958) rotate(265.860997086879)"><path class="b-outline" fill="#000000" stroke="none" d="M 30 1 L 43.6847148465324 1 L 43.6847148465324 -1 L 30 -1 Z M 106.1417460965324 1 L 119.8264609430648 1 L 119.8264609430648 4 L 127.8264609430648 0 L 119.8264609430648 -4 L 119.8264609430648 -1 L 106.1417460965324 -1 Z"/><text text-anchor="middle" pointer-events="none" font-size="8px" fill="#000000" x="74.9132304715324" y="3" transform="rotate(180 74.9132304715324 0)" font-family="Helvetica Neue, Helvetica, Arial, sans-serif">TYPE_MEMBER</text></g><g class="relationship" transform="translate(262.6839038495491 223.62364158276648) rotate(515.1410537875144)"><path class="b-outline" fill="#000000" stroke="none" d="M 30 1 L 80.61652149593387 1 L 80.61652149593387 -1 L 30 -1 Z M 143.07355274593385 1 L 193.69007424186773 1 L 193.69007424186773 4 L 201.69007424186773 0 L 193.69007424186773 -4 L 193.69007424186773 -1 L 143.07355274593385 -1 Z"/><text text-anchor="middle" pointer-events="none" font-size="8px" fill="#000000" x="111.84503712093387" y="3" transform="rotate(180 111.84503712093387 0)" font-family="Helvetica Neue, Helvetica, Arial, sans-serif">TYPE_MEMBER</text></g></g><g class="layer nodes"><g class="node" aria-label="graph-node227" transform="translate(-206.11240470090848,-354.63905049736286)"><circle class="b-outline" cx="0" cy="0" r="30" fill="#BBCC33" stroke="#000000" stroke-width="2px"/><text class="caption" text-anchor="middle" pointer-events="none" x="0" y="5" font-size="10px" fill="#000000" font-family="Helvetica Neue, Helvetica, Arial, sans-serif"> Invocation</text></g><g class="node" aria-label="graph-node228" transform="translate(-402.1979340767186,-273.5201008691715)"><circle class="b-outline" cx="0" cy="0" r="30" fill="#BBCC33" stroke="#000000" stroke-width="2px"/><text class="caption" text-anchor="middle" pointer-events="none" x="0" y="5" font-size="10px" fill="#000000" font-family="Helvetica Neue, Helvetica, Arial, sans-serif"> Invocation</text></g><g class="node" aria-label="graph-node229" transform="translate(-101.46901239144171,204.46479895286177)"><circle class="b-outline" cx="0" cy="0" r="30" fill="#BBCC33" stroke="#000000" stroke-width="2px"/><text class="caption" text-anchor="middle" pointer-events="none" x="0" y="5" font-size="10px" fill="#000000" font-family="Helvetica Neue, Helvetica, Arial, sans-serif"> Invocation</text></g><g class="node" aria-label="graph-node230" transform="translate(49.43313619884953,-332.40182476754376)"><circle class="b-outline" cx="0" cy="0" r="30" fill="#BBCC33" stroke="#000000" stroke-width="2px"/><text class="caption" text-anchor="middle" pointer-events="none" x="0" y="5" font-size="10px" fill="#000000" font-family="Helvetica Neue, Helvetica, Arial, sans-serif"> Invocation</text></g><g class="node" aria-label="graph-node233" transform="translate(236.85670620179485,-366.39768768369447)"><circle class="b-outline" cx="0" cy="0" r="30" fill="#BBCC33" stroke="#000000" stroke-width="2px"/><text class="caption" text-anchor="middle" pointer-events="none" x="0" y="5" font-size="10px" fill="#000000" font-family="Helvetica Neue, Helvetica, Arial, sans-serif"> Invocation</text></g><g class="node" aria-label="graph-node255" transform="translate(60.848601732038944,202.80127194984544)"><circle class="b-outline" cx="0" cy="0" r="30" fill="#AAAA00" stroke="#000000" stroke-width="2px"/><text class="caption" text-anchor="middle" pointer-events="none" x="0" y="5" font-size="10px" fill="#000000" font-family="Helvetica Neue, Helvetica, Arial, sans-serif"> component</text></g><g class="node" aria-label="graph-node279" transform="translate(280.14296178182605,-200.51341705577835)"><circle class="b-outline" cx="0" cy="0" r="30" fill="#44BB99" stroke="#000000" stroke-width="2px"/><text class="caption" text-anchor="middle" pointer-events="none" x="0" y="5" font-size="10px" fill="#000000" font-family="Helvetica Neue, Helvetica, Arial, sans-serif"> operation</text></g><g class="node" aria-label="graph-node286" transform="translate(95.18451267269069,396.5495506591791)"><circle class="b-outline" cx="0" cy="0" r="30" fill="#44BB99" stroke="#000000" stroke-width="2px"/><text class="caption" text-anchor="middle" pointer-events="none" x="0" y="5" font-size="10px" fill="#000000" font-family="Helvetica Neue, Helvetica, Arial, sans-serif"> operation</text></g><g class="node" aria-label="graph-node287" transform="translate(382.8534767142119,-238.765539381679)"><circle class="b-outline" cx="0" cy="0" r="30" fill="#44BB99" stroke="#000000" stroke-width="2px"/><text class="caption" text-anchor="middle" pointer-events="none" x="0" y="5" font-size="10px" fill="#000000" font-family="Helvetica Neue, Helvetica, Arial, sans-serif"> someAdditi…</text></g><g class="node" aria-label="graph-node289" transform="translate(-175.15014185198913,-196.74008567582226)"><circle class="b-outline" cx="0" cy="0" r="30" fill="#44BB99" stroke="#000000" stroke-width="2px"/><text class="caption" text-anchor="middle" pointer-events="none" x="0" y="5" font-size="10px" fill="#000000" font-family="Helvetica Neue, Helvetica, Arial, sans-serif"> operation</text></g><g class="node" aria-label="graph-node291" transform="translate(52.460966027415225,321.0228557255583)"><circle class="b-outline" cx="0" cy="0" r="30" fill="#44BB99" stroke="#000000" stroke-width="2px"/><text class="caption" text-anchor="middle" pointer-events="none" x="0" y="5" font-size="10px" fill="#000000" font-family="Helvetica Neue, Helvetica, Arial, sans-serif"> operation</text></g><g class="node" aria-label="graph-node294" transform="translate(5.6124718205169515,-111.64196172309067)"><circle class="b-outline" cx="0" cy="0" r="30" fill="#44BB99" stroke="#000000" stroke-width="2px"/><text class="caption" text-anchor="middle" pointer-events="none" x="0" y="5" font-size="10px" fill="#000000" font-family="Helvetica Neue, Helvetica, Arial, sans-serif"> operation</text></g><g class="node" aria-label="graph-node296" transform="translate(-361.5133246274845,-93.62486982515968)"><circle class="b-outline" cx="0" cy="0" r="30" fill="#44BB99" stroke="#000000" stroke-width="2px"/><text class="caption" text-anchor="middle" pointer-events="none" x="0" y="5" font-size="10px" fill="#000000" font-family="Helvetica Neue, Helvetica, Arial, sans-serif"> yetAnother…</text></g><g class="node" aria-label="graph-node298" transform="translate(-99.41462969168037,-63.75386533755017)"><circle class="b-outline" cx="0" cy="0" r="30" fill="#DDDDDD" stroke="#000000" stroke-width="2px"/><text class="caption" text-anchor="middle" pointer-events="none" x="0" y="5" font-size="10px" fill="#000000" font-family="Helvetica Neue, Helvetica, Arial, sans-serif"> Annotation</text></g><g class="node" aria-label="graph-node299" transform="translate(-48.902666252602806,-260.38746963469845)"><circle class="b-outline" cx="0" cy="0" r="30" fill="#DDDDDD" stroke="#000000" stroke-width="2px"/><text class="caption" text-anchor="middle" pointer-events="none" x="0" y="5" font-size="10px" fill="#000000" font-family="Helvetica Neue, Helvetica, Arial, sans-serif"> Annotation</text></g><g class="node" aria-label="graph-node300" transform="translate(-35.61336320271862,488.64848394385274)"><circle class="b-outline" cx="0" cy="0" r="30" fill="#DDDDDD" stroke="#000000" stroke-width="2px"/><text class="caption" text-anchor="middle" pointer-events="none" x="0" y="5" font-size="10px" fill="#000000" font-family="Helvetica Neue, Helvetica, Arial, sans-serif"> Annotation</text></g><g class="node" aria-label="graph-node301" transform="translate(184.30556101486235,-76.20033858722698)"><circle class="b-outline" cx="0" cy="0" r="30" fill="#DDDDDD" stroke="#000000" stroke-width="2px"/><text class="caption" text-anchor="middle" pointer-events="none" x="0" y="5" font-size="10px" fill="#000000" font-family="Helvetica Neue, Helvetica, Arial, sans-serif"> Annotation</text></g><g class="node" aria-label="graph-node302" transform="translate(128.73964048213693,-241.98161485124183)"><circle class="b-outline" cx="0" cy="0" r="30" fill="#EE8866" stroke="#000000" stroke-width="2px"/><text class="caption" text-anchor="middle" pointer-events="none" x="0" y="5" font-size="10px" fill="#000000" font-family="Helvetica Neue, Helvetica, Arial, sans-serif"> Block</text></g><g class="node" aria-label="graph-node305" transform="translate(-296.2416173867774,41.41049135036957)"><circle class="b-outline" cx="0" cy="0" r="30" fill="#EE8866" stroke="#000000" stroke-width="2px"/><text class="caption" text-anchor="middle" pointer-events="none" x="0" y="5" font-size="10px" fill="#000000" font-family="Helvetica Neue, Helvetica, Arial, sans-serif"> Block</text></g><g class="node" aria-label="graph-node307" transform="translate(-287.71183582197176,-212.8193067936017)"><circle class="b-outline" cx="0" cy="0" r="30" fill="#EE8866" stroke="#000000" stroke-width="2px"/><text class="caption" text-anchor="middle" pointer-events="none" x="0" y="5" font-size="10px" fill="#000000" font-family="Helvetica Neue, Helvetica, Arial, sans-serif"> Block</text></g><g class="node" aria-label="graph-node313" transform="translate(392.9616193081299,-90.91153859485965)"><circle class="b-outline" cx="0" cy="0" r="30" fill="#EE8866" stroke="#000000" stroke-width="2px"/><text class="caption" text-anchor="middle" pointer-events="none" x="0" y="5" font-size="10px" fill="#000000" font-family="Helvetica Neue, Helvetica, Arial, sans-serif"> Block</text></g><g class="node" aria-label="graph-node314" transform="translate(0.7793106168909958,95.78224283445468)"><circle class="b-outline" cx="0" cy="0" r="30" fill="#EE8866" stroke="#000000" stroke-width="2px"/><text class="caption" text-anchor="middle" pointer-events="none" x="0" y="5" font-size="10px" fill="#000000" font-family="Helvetica Neue, Helvetica, Arial, sans-serif"> Block</text></g><g class="node" aria-label="graph-node318" transform="translate(142.07534297472256,553.954987815454)"><circle class="b-outline" cx="0" cy="0" r="30" fill="#EE8866" stroke="#000000" stroke-width="2px"/><text class="caption" text-anchor="middle" pointer-events="none" x="0" y="5" font-size="10px" fill="#000000" font-family="Helvetica Neue, Helvetica, Arial, sans-serif"> Block</text></g><g class="node" aria-label="graph-node328" transform="translate(-201.4341901097864,-37.14289467973292)"><circle class="b-outline" cx="0" cy="0" r="30" fill="#99DDFF" stroke="#000000" stroke-width="2px"/><text class="caption" text-anchor="middle" pointer-events="none" x="0" y="5" font-size="10px" fill="#000000" font-family="Helvetica Neue, Helvetica, Arial, sans-serif"> ConcreteD…</text></g><g class="node" aria-label="graph-node331" transform="translate(104.7955525367411,48.864438609252986)"><circle class="b-outline" cx="0" cy="0" r="30" fill="#99DDFF" stroke="#000000" stroke-width="2px"/><text class="caption" text-anchor="middle" pointer-events="none" x="0" y="5" font-size="10px" fill="#000000" font-family="Helvetica Neue, Helvetica, Arial, sans-serif"> Decorator</text></g><g class="node" aria-label="graph-node332" transform="translate(229.14649493880216,375.3625279629459)"><circle class="b-outline" cx="0" cy="0" r="30" fill="#99DDFF" stroke="#000000" stroke-width="2px"/><text class="caption" text-anchor="middle" pointer-events="none" x="0" y="5" font-size="10px" fill="#000000" font-family="Helvetica Neue, Helvetica, Arial, sans-serif"> ConcreteC…</text></g><g class="node" aria-label="graph-node334" transform="translate(291.5343098983938,-43.09858623637958)"><circle class="b-outline" cx="0" cy="0" r="30" fill="#99DDFF" stroke="#000000" stroke-width="2px"/><text class="caption" text-anchor="middle" pointer-events="none" x="0" y="5" font-size="10px" fill="#000000" font-family="Helvetica Neue, Helvetica, Arial, sans-serif"> ConcreteD…</text></g><g class="node" aria-label="graph-node354" transform="translate(262.6839038495491,223.62364158276648)"><circle class="b-outline" cx="0" cy="0" r="30" fill="#99DDFF" stroke="#000000" stroke-width="2px"/><text class="caption" text-anchor="middle" pointer-events="none" x="0" y="5" font-size="10px" fill="#000000" font-family="Helvetica Neue, Helvetica, Arial, sans-serif"> Component</text></g></g></svg>